<?xml version="1.0" encoding="UTF-8" standalone="no"?>
<!-- Created with Inkscape (http://www.inkscape.org/) -->

<svg
   xmlns:dc="http://purl.org/dc/elements/1.1/"
   xmlns:cc="http://creativecommons.org/ns#"
   xmlns:rdf="http://www.w3.org/1999/02/22-rdf-syntax-ns#"
   xmlns:svg="http://www.w3.org/2000/svg"
   xmlns="http://www.w3.org/2000/svg"
   xmlns:sodipodi="http://sodipodi.sourceforge.net/DTD/sodipodi-0.dtd"
   xmlns:inkscape="http://www.inkscape.org/namespaces/inkscape"
   width="166.6256"
   height="29.61904"
   viewBox="0 0 44.086357 7.836704"
   version="1.1"
   id="svg6751"
   inkscape:version="0.92.0 r15299"
   sodipodi:docname="dr web.svg">
  <defs
     id="defs6745" />
  <sodipodi:namedview
     id="base"
     pagecolor="#ffffff"
     bordercolor="#666666"
     borderopacity="1.0"
     inkscape:pageopacity="0.0"
     inkscape:pageshadow="2"
     inkscape:zoom="4.8422467"
     inkscape:cx="82.812798"
     inkscape:cy="14.309518"
     inkscape:document-units="mm"
     inkscape:current-layer="layer1"
     showgrid="false"
     fit-margin-top="0"
     fit-margin-left="0"
     fit-margin-right="0"
     fit-margin-bottom="0"
     units="px"
     inkscape:window-width="1280"
     inkscape:window-height="744"
     inkscape:window-x="-4"
     inkscape:window-y="-4"
     inkscape:window-maximized="1" />
  <metadata
     id="metadata6748">
    <rdf:RDF>
      <cc:Work
         rdf:about="">
        <dc:format>image/svg+xml</dc:format>
        <dc:type
           rdf:resource="http://purl.org/dc/dcmitype/StillImage" />
        <dc:title></dc:title>
      </cc:Work>
    </rdf:RDF>
  </metadata>
  <g
     inkscape:label="Layer 1"
     inkscape:groupmode="layer"
     id="layer1"
     transform="translate(-130.03554,-213.57436)">
    <g
       id="g6835"
       transform="translate(0.1322916,-0.13228814)">
      <g
         transform="matrix(0.35277777,0,0,-0.35277777,143.8397,214.65712)"
         id="g5363">
        <path
           inkscape:connector-curvature="0"
           id="path5365"
           style="fill:#73b419;fill-opacity:1;fill-rule:nonzero;stroke:none"
           d="m 0,0 c 6.066,0 7.545,-4.265 7.545,-7.566 0,-2.98 -1.265,-7.438 -7.545,-7.438 H -8.23 V 0 Z m -2.486,-11.252 h 1.157 c 1.286,0 2.829,0.385 2.829,3.772 0,3.472 -1.436,3.944 -2.829,3.944 h -1.157 z" />
      </g>
      <g
         transform="matrix(0.35277777,0,0,-0.35277777,148.71093,215.98798)"
         id="g5367">
        <path
           inkscape:connector-curvature="0"
           id="path5369"
           style="fill:#73b419;fill-opacity:1;fill-rule:nonzero;stroke:none"
           d="m 0,0 v -2.55 h 0.086 c 0.428,1.414 1.586,2.807 3.386,2.807 0.279,0 0.6,-0.043 0.879,-0.107 v -4.501 c -0.343,0.086 -0.729,0.172 -1.114,0.172 -1.608,0 -2.894,-1.029 -2.894,-2.98 v -4.072 H -5.058 V 0 Z" />
      </g>
      <path
         inkscape:connector-curvature="0"
         id="path5371"
         style="fill:#73b419;fill-opacity:1;fill-rule:nonzero;stroke:none;stroke-width:0.35277778"
         d="m 150.24597,218.49425 h 1.64818 v 1.45946 h -1.64818 z" />
      <path
         d="m 154.16346,218.04461 h 0.0303 l 0.83926,-3.37185 h 1.94345 l 0.81668,3.37185 h 0.03 l 0.64276,-3.37185 h 1.80728 l -1.27035,5.2772 h -2.17805 l -0.87701,-3.44769 h -0.03 l -0.83149,3.44769 h -2.22321 l -1.2326,-5.2772 h 1.89794 z"
         style="fill:#73b419;fill-opacity:1;fill-rule:nonzero;stroke:none;stroke-width:0.35277778"
         id="path5375"
         inkscape:connector-curvature="0" />
      <path
         d="m 165.20544,214.65713 v 1.24742 h -2.59327 v 0.76412 h 2.48003 v 1.20932 h -2.48003 v 0.82444 h 2.64654 v 1.24778 h -4.67254 v -5.29308 z"
         style="fill:#73b419;fill-opacity:1;fill-rule:nonzero;stroke:none;stroke-width:0.35277778"
         id="path5379"
         inkscape:connector-curvature="0" />
      <g
         transform="matrix(0.35277777,0,0,-0.35277777,168.90502,214.65712)"
         id="g5389">
        <path
           inkscape:connector-curvature="0"
           id="path5391"
           style="fill:#73b419;fill-opacity:1;fill-rule:nonzero;stroke:none"
           d="m 0,0 c 4.693,0 5.55,-2.509 5.55,-3.901 0,-1.714 -1.179,-3.108 -3.043,-3.45 v -0.086 c 1.499,-0.215 3.386,-1.201 3.386,-3.558 0,-3.794 -4.287,-4.009 -6.195,-4.009 H -9.024 V 0 Z m -3.58,-5.937 h 1.35 c 1.971,0 2.164,1.029 2.164,1.457 0,0.621 -0.45,1.436 -2.035,1.436 H -3.58 Z m 0,-6.022 h 1.456 c 1.844,0 2.145,1.007 2.145,1.542 0,1.522 -1.78,1.522 -2.273,1.522 H -3.58 Z" />
      </g>
      <g
         transform="matrix(0.35277777,0,0,-0.35277777,171.25099,215.97193)"
         id="g5393">
        <path
           inkscape:connector-curvature="0"
           id="path5395"
           style="fill:#73b419;fill-opacity:1;fill-rule:nonzero;stroke:none"
           d="M 0,0 C 0,2.051 1.654,3.693 3.694,3.693 5.734,3.693 7.388,2.051 7.388,0 7.388,-2.051 5.734,-3.694 3.694,-3.694 1.654,-3.694 0,-2.051 0,0 m 3.694,-2.501 c 1.296,0 2.369,1.133 2.369,2.501 0,1.367 -1.073,2.5 -2.369,2.5 -1.297,0 -2.37,-1.133 -2.37,-2.5 0,-1.368 1.073,-2.501 2.37,-2.501 M 4.032,1.653 C 4.487,1.653 5.24,1.601 5.24,0.805 5.24,0.285 4.903,0.05 4.574,-0.011 v -0.03 c 0.28,-0.021 0.493,-0.265 0.56,-0.561 L 5.339,-1.531 H 4.129 L 4.023,-0.736 C 3.984,-0.47 3.789,-0.419 3.655,-0.419 H 3.383 V -1.531 H 2.234 V 1.653 Z M 3.337,0.265 h 0.279 c 0.126,0 0.475,0 0.475,0.347 0,0.326 -0.321,0.326 -0.446,0.326 H 3.337 Z" />
      </g>
      <g
         transform="matrix(0.35277777,0,0,-0.35277777,135.07162,215.3153)"
         id="g5397">
        <path
           inkscape:connector-curvature="0"
           id="path5399"
           style="fill:#73b419;fill-opacity:1;fill-rule:nonzero;stroke:none"
           d="m 0,0 4.41,-2.464 c 0.109,0.299 0.167,0.61 0.167,0.933 0,1.935 -2.042,3.502 -4.556,3.502 -2.518,0 -4.558,-1.567 -4.558,-3.502 0,-0.316 0.056,-0.622 0.156,-0.913 z" />
      </g>
      <path
         d="m 137.77443,217.83143 1.2453,0.75001 -2.33327,2.82962 z"
         style="fill:#73b419;fill-opacity:1;fill-rule:nonzero;stroke:none;stroke-width:0.35277778"
         id="path5403"
         inkscape:connector-curvature="0" />
      <path
         d="m 137.83962,217.1094 -0.1397,-0.62124 2.39818,0.70732 -1.48731,0.79622 0.20461,-0.64664 z"
         style="fill:#73b419;fill-opacity:1;fill-rule:nonzero;stroke:none;stroke-width:0.35277778"
         id="path5407"
         inkscape:connector-curvature="0" />
      <path
         d="m 137.56015,216.08746 -0.31644,-0.43885 2.12619,-0.6798 -0.52917,1.67427 -0.21872,-0.7708 z"
         style="fill:#73b419;fill-opacity:1;fill-rule:nonzero;stroke:none;stroke-width:0.35277778"
         id="path5411"
         inkscape:connector-curvature="0" />
      <path
         d="m 136.97482,215.30896 -0.44661,-0.47166 0.58596,-0.60008 -0.64135,-0.39828 h 1.70145 z"
         style="fill:#73b419;fill-opacity:1;fill-rule:nonzero;stroke:none;stroke-width:0.35277778"
         id="path5415"
         inkscape:connector-curvature="0" />
      <path
         d="m 132.35915,217.83143 -1.24531,0.75001 2.33363,2.82962 z"
         style="fill:#73b419;fill-opacity:1;fill-rule:nonzero;stroke:none;stroke-width:0.35277778"
         id="path5419"
         inkscape:connector-curvature="0" />
      <path
         d="m 132.29403,217.1094 0.1397,-0.62124 -2.39819,0.70732 1.48731,0.79622 -0.20461,-0.64664 z"
         style="fill:#73b419;fill-opacity:1;fill-rule:nonzero;stroke:none;stroke-width:0.35277778"
         id="path5423"
         inkscape:connector-curvature="0" />
      <path
         d="m 132.57343,216.08746 0.31644,-0.43885 -2.12619,-0.6798 0.52916,1.67427 0.21872,-0.7708 z"
         style="fill:#73b419;fill-opacity:1;fill-rule:nonzero;stroke:none;stroke-width:0.35277778"
         id="path5427"
         inkscape:connector-curvature="0" />
      <path
         d="m 133.15875,215.30896 0.44662,-0.47166 -0.58596,-0.60008 0.64135,-0.39828 h -1.70145 z"
         style="fill:#73b419;fill-opacity:1;fill-rule:nonzero;stroke:none;stroke-width:0.35277778"
         id="path5431"
         inkscape:connector-curvature="0" />
      <path
         d="m 134.45863,217.06417 0.28717,-0.85126 h 0.66145 l 0.30375,0.85126 h 0.01 l 0.17709,-0.78422 -0.83114,-0.47379 -0.82727,0.47095 0.20814,0.78706 z"
         style="fill:#73b419;fill-opacity:1;fill-rule:nonzero;stroke:none;stroke-width:0.35277778"
         id="path5435"
         inkscape:connector-curvature="0" />
      <g
         transform="matrix(0.35277777,0,0,-0.35277777,137.3203,217.09076)"
         id="g5445">
        <path
           inkscape:connector-curvature="0"
           id="path5447"
           style="fill:#73b419;fill-opacity:1;fill-rule:nonzero;stroke:none"
           d="m 0,0 -2.459,1.402 -0.887,-2.69 H -5.54 l -0.832,2.469 h -0.03 L -7.233,-1.288 H -9.439 L -10.327,1.4 -12.784,0.001 c 0,0 -0.896,-3.17 2.52,-5.774 1.198,-0.913 2.092,-1.507 2.895,-1.781 l -0.148,0.451 h 2.255 l -0.151,-0.458 c 0.802,0.269 1.691,0.863 2.882,1.788 C 0.859,-3.142 0,0 0,0 m -5.007,-6.328 h -2.767 l -0.299,0.905 h 3.365 z m 0.554,1.68 h -3.876 l -0.299,0.905 h 4.473 z m 0.554,1.679 h -4.985 l -0.299,0.905 h 5.582 z" />
      </g>
    </g>
  </g>
</svg>
